<svg xmlns="http://www.w3.org/2000/svg" xmlns:xlink="http://www.w3.org/1999/xlink" preserveAspectRatio="xMidYMid" width="48.844" height="39.844" viewBox="0 0 48.844 39.844">
  <defs>
    <style>
      .cls-1 {
        fill: #e8663c;
        fill-rule: evenodd;
      }
    </style>
  </defs>
  <path d="M48.159,8.396 L40.426,0.664 C39.527,-0.235 38.070,-0.235 37.170,0.664 L19.048,18.786 L11.631,11.369 C10.732,10.470 9.274,10.470 8.375,11.369 L0.643,19.102 C-0.256,20.000 -0.256,21.458 0.643,22.357 L9.385,31.100 C9.466,31.217 9.557,31.328 9.659,31.431 L17.392,39.163 C17.823,39.595 18.409,39.837 19.020,39.837 C19.630,39.837 20.216,39.595 20.648,39.163 L48.159,11.652 C48.590,11.220 48.833,10.635 48.833,10.024 C48.833,9.413 48.590,8.828 48.159,8.396 Z" class="cls-1"/>
</svg>
